<svg xmlns="http://www.w3.org/2000/svg" viewBox="2443.341 692 21.285 28.388">
  <defs>
    <style>
      .cls-1 {
        fill: #fff;
      }
    </style>
  </defs>
  <g id="Group_41" data-name="Group 41" transform="translate(2127)">
    <g id="Group_31" data-name="Group 31" transform="translate(316.341 692)">
      <path id="Path_28" data-name="Path 28" class="cls-1" d="M21.285,5.744a.655.655,0,0,0-.194-.466L16,.194h0A.662.662,0,0,0,15.53,0H1.4A1.4,1.4,0,0,0,0,1.4V26.985a1.4,1.4,0,0,0,1.4,1.4H19.883a1.4,1.4,0,0,0,1.4-1.4V5.755C21.285,5.75,21.285,5.75,21.285,5.744ZM16.268,5.09a.073.073,0,0,1-.072-.072V2.268L19.018,5.09Zm3.621,21.967H1.4a.073.073,0,0,1-.072-.072V1.4A.073.073,0,0,1,1.4,1.325H14.865V5.012a1.4,1.4,0,0,0,1.4,1.4h3.687V26.98C19.955,27.029,19.927,27.057,19.888,27.057Z"/>
      <path id="Path_29" data-name="Path 29" class="cls-1" d="M86.325,164H74.565a.665.665,0,0,0,0,1.331h11.76a.665.665,0,0,0,0-1.331Z" transform="translate(-69.803 -154.907)"/>
      <path id="Path_30" data-name="Path 30" class="cls-1" d="M86.325,236.4H74.565a.665.665,0,0,0,0,1.331h11.76a.667.667,0,0,0,.665-.665A.66.66,0,0,0,86.325,236.4Z" transform="translate(-69.803 -223.293)"/>
      <path id="Path_31" data-name="Path 31" class="cls-1" d="M86.325,308.7H74.565a.665.665,0,0,0,0,1.331h11.76a.665.665,0,0,0,0-1.331Z" transform="translate(-69.803 -291.584)"/>
      <path id="Path_32" data-name="Path 32" class="cls-1" d="M80.448,381H74.565a.665.665,0,0,0,0,1.331h5.883a.665.665,0,0,0,0-1.331Z" transform="translate(-69.803 -359.875)"/>
    </g>
  </g>
</svg>
